<svg xmlns="http://www.w3.org/2000/svg" width="1280" height="480" viewBox="0 0 1280 480" role="img" aria-labelledby="title desc">
  <title id="title">Prism — A second perspective.</title>
  <desc id="desc">Warm terracotta light, a geometric prism and an original pixel companion. Claude-powered code review for Codex.</desc>
  <defs>
    <radialGradient id="glow" cx="16%" cy="0%" r="110%">
      <stop stop-color="#b57055"/><stop offset=".5" stop-color="#382b29"/><stop offset="1" stop-color="#201e20"/>
    </radialGradient>
    <linearGradient id="beam"><stop stop-color="#e6ba98" stop-opacity=".1"/><stop offset="1" stop-color="#edbc99"/></linearGradient>
    <linearGradient id="glass" x2="1" y2="1"><stop stop-color="#f2c7a6" stop-opacity=".23"/><stop offset="1" stop-color="#d87858" stop-opacity=".04"/></linearGradient>
  </defs>
  <rect width="1280" height="480" rx="24" fill="url(#glow)"/>
  <rect x="24" y="24" width="1232" height="432" rx="14" fill="none" stroke="#e5b69d" stroke-opacity=".18"/>
  <g fill="#e8c3ae" font-family="Arial, Helvetica, sans-serif" font-size="13" letter-spacing="3">
    <text x="72" y="77">CODEX × CLAUDE</text>
    <text x="72" y="412">INDEPENDENT PERSPECTIVE. GROUNDED FINDINGS.</text>
  </g>
  <text x="68" y="226" fill="#fff5e9" font-family="Georgia, serif" font-size="114" letter-spacing="-4">Prism</text>
  <text x="74" y="279" fill="#f0c5af" font-family="Arial, Helvetica, sans-serif" font-size="26">A second perspective.</text>
  <text x="74" y="321" fill="#c0aaa0" font-family="Arial, Helvetica, sans-serif" font-size="17">Claude-powered code review, inside Codex.</text>
  <path d="M630 258H843" stroke="url(#beam)" stroke-width="3"/>
  <path d="M880 134L771 330H989Z" fill="url(#glass)" stroke="#f0c5a7" stroke-width="2"/>
  <path d="M880 134L880 302L771 330M880 302L989 330" fill="none" stroke="#ecc6b0" stroke-opacity=".3"/>
  <path d="M922 245L1188 191" stroke="#e69073" stroke-width="3"/>
  <path d="M931 258H1188" stroke="#f0c6a0" stroke-width="3"/>
  <path d="M938 272L1188 323" stroke="#a6b9ad" stroke-width="3"/>
  <g transform="translate(1050 72)" fill="#d98668">
    <path d="M12 0H60V12H72V48H60V60H48V48H24V60H12V48H0V12H12Z"/>
    <path d="M19 18H25V30H19ZM47 18H53V30H47Z" fill="#2a2423"/>
  </g>
</svg>
